<svg width="16" height="16" viewBox="0 0 16 16" fill="none" xmlns="http://www.w3.org/2000/svg">
<path d="M7.76497 11.9547C8.06611 12.2391 8.07967 12.7138 7.79526 13.015C7.51085 13.3161 7.03617 13.3297 6.73503 13.0453L2.23503 8.79526C2.08502 8.65357 2 8.45634 2 8.25C2 8.04365 2.08502 7.84642 2.23503 7.70474L6.73503 3.45474C7.03617 3.17033 7.51085 3.18389 7.79526 3.48503C8.07967 3.78617 8.06611 4.26085 7.76497 4.54526L4.63642 7.5L13.25 7.5C13.6642 7.5 14 7.83579 14 8.25C14 8.66421 13.6642 9 13.25 9L4.63642 9L7.76497 11.9547Z" fill="white"/>
</svg>
