<svg width="791" height="193" viewBox="0 0 791 193" fill="none" xmlns="http://www.w3.org/2000/svg">
<g filter="url(#filter0_d_102_179)">
<rect x="251" y="131" width="274" height="53" rx="5" fill="#1B181B"/>
<rect x="250.5" y="130.5" width="275" height="54" rx="5.5" stroke="#282828"/>
</g>
<path d="M419.908 149.446C424.033 149.446 425.212 151.637 425.212 154.577V161.67C425.212 164.61 424.033 166.801 419.908 166.801H414.334V149.446H419.908ZM415.807 165.425H419.932C422.791 165.425 423.707 164.219 423.707 161.744V154.503C423.707 152.06 422.791 150.83 419.932 150.83H415.807V165.425Z" fill="white"/>
<path d="M432.267 165.728C433.595 165.699 434.915 165.496 436.193 165.126L436.448 166.355C435.065 166.819 433.619 167.055 432.163 167.056C428.675 167.056 427.552 165.207 427.552 162.446V158.455C427.552 155.849 428.699 153.846 432.187 153.846C435.675 153.846 436.702 155.849 436.702 158.455V160.899H429.034V162.528C429.034 164.8 429.798 165.728 432.267 165.728ZM429.034 159.555H435.245V158.407C435.245 156.265 434.513 155.149 432.187 155.149C429.862 155.149 429.002 156.265 429.002 158.407L429.034 159.555Z" fill="white"/>
<path d="M444.012 166.801H441.743L437.538 154.113H439.043L442.865 165.734L446.712 154.113H448.217L444.012 166.801Z" fill="white"/>
<path d="M453.825 165.728C455.154 165.699 456.473 165.496 457.751 165.126L458.006 166.355C456.623 166.819 455.177 167.055 453.722 167.056C450.234 167.056 449.111 165.207 449.111 162.446V158.455C449.111 155.849 450.257 153.846 453.746 153.846C457.234 153.846 458.261 155.849 458.261 158.455V160.899H450.592V162.528C450.592 164.8 451.356 165.728 453.825 165.728ZM450.592 159.555H456.804V158.407C456.804 156.265 456.071 155.149 453.746 155.149C451.42 155.149 450.56 156.265 450.56 158.407L450.592 159.555Z" fill="white"/>
<path d="M460.936 166.799V148.922L462.409 148.719V166.799H460.936Z" fill="white"/>
<path d="M469.904 167.056C466.416 167.056 465.086 165.052 465.086 162.446V158.455C465.086 155.849 466.416 153.846 469.904 153.846C473.392 153.846 474.722 155.849 474.722 158.455V162.446C474.722 165.052 473.4 167.056 469.904 167.056ZM473.24 158.407C473.24 156.265 472.221 155.198 469.904 155.198C467.586 155.198 466.567 156.265 466.567 158.407V162.479C466.567 164.621 467.586 165.688 469.904 165.688C472.221 165.688 473.24 164.621 473.24 162.479V158.407Z" fill="white"/>
<path d="M486.522 163.171C486.522 165.492 485.503 167.08 482.7 167.08C481.415 167.077 480.134 166.938 478.877 166.665V171.959L477.396 172.162V154.106H478.75L478.822 155.304C480.031 154.38 481.494 153.869 483.003 153.846C485.392 153.846 486.522 155.067 486.522 157.364V163.171ZM478.877 165.28C480.149 165.565 481.446 165.716 482.748 165.728C484.38 165.728 485.041 164.914 485.041 163.171V157.389C485.041 155.931 484.579 155.222 482.899 155.222C481.414 155.269 479.991 155.845 478.877 156.851V165.28Z" fill="white"/>
<path d="M493.475 165.728C494.804 165.699 496.123 165.496 497.401 165.126L497.656 166.355C496.273 166.819 494.827 167.055 493.372 167.056C489.884 167.056 488.761 165.207 488.761 162.446V158.455C488.761 155.849 489.908 153.846 493.404 153.846C496.9 153.846 497.911 155.849 497.911 158.455V160.899H490.242V162.528C490.242 164.8 491.006 165.728 493.475 165.728ZM490.242 159.555H496.462V158.407C496.462 156.265 495.721 155.149 493.404 155.149C491.086 155.149 490.218 156.265 490.218 158.407L490.242 159.555Z" fill="white"/>
<path d="M505.987 155.328C504.621 156.001 503.311 156.785 502.069 157.674V166.795H500.588V154.106H501.91L501.989 156.037C503.185 155.17 504.466 154.436 505.812 153.846L505.987 155.328Z" fill="white"/>
<path d="M319.535 166.832V159.502H313.165V166.832H309.979V149.379H313.165V156.554H319.535V149.379H322.721V166.832H319.535Z" fill="white"/>
<path d="M334.57 166.831H332.014L331.783 165.959C330.677 166.698 329.385 167.091 328.064 167.091C325.786 167.091 324.815 165.463 324.815 163.288C324.815 160.698 325.914 159.705 328.454 159.705H331.448V158.361C331.448 156.952 331.066 156.455 329.059 156.455C327.895 156.467 326.734 156.598 325.595 156.846L325.213 154.403C326.606 154.009 328.044 153.806 329.489 153.8C333.415 153.8 334.562 155.209 334.562 158.41L334.57 166.831ZM331.448 162.009H329.139C328.12 162.009 327.833 162.294 327.833 163.264C327.833 164.233 328.12 164.55 329.091 164.55C329.93 164.543 330.752 164.316 331.48 163.891L331.448 162.009Z" fill="white"/>
<path d="M340.623 167.093C339.159 167.067 337.708 166.82 336.315 166.36L336.753 163.917C337.963 164.266 339.214 164.45 340.472 164.462C341.849 164.462 342.064 164.145 342.064 163.176C342.064 162.361 341.913 162.003 339.89 161.506C336.832 160.732 336.474 159.967 336.474 157.475C336.474 154.983 337.573 153.785 341.133 153.785C342.392 153.784 343.648 153.928 344.875 154.217L344.565 156.758C343.432 156.546 342.284 156.424 341.133 156.392C339.779 156.392 339.54 156.709 339.54 157.491C339.54 158.517 339.612 158.599 341.308 159.038C344.788 159.983 345.122 160.456 345.122 163.111C345.13 165.57 344.39 167.093 340.623 167.093Z" fill="white"/>
<path d="M354.432 166.828V157.919C354.432 157.235 354.154 156.893 353.437 156.893C352.292 157.025 351.185 157.39 350.18 157.968V166.828H347.05V148.846L350.18 148.406V155.028C351.596 154.285 353.153 153.866 354.743 153.798C356.813 153.798 357.562 155.288 357.562 157.568V166.828H354.432Z" fill="white"/>
<path d="M359.863 152.264V148.567H362.992V152.264H359.863ZM359.863 166.834V154.072H362.992V166.834H359.863Z" fill="white"/>
<path d="M365.167 154.218C365.167 151.017 366.991 149.16 371.243 149.16C372.805 149.158 374.361 149.35 375.878 149.731L375.519 152.589C374.143 152.322 372.747 152.172 371.347 152.141C369.117 152.141 368.4 152.956 368.4 154.788V161.499C368.4 163.364 369.117 164.146 371.347 164.146C372.748 164.119 374.144 163.969 375.519 163.698L375.878 166.556C374.361 166.94 372.805 167.134 371.243 167.135C366.991 167.135 365.167 165.27 365.167 162.077V154.218Z" fill="white"/>
<path d="M382.304 167.097C378.028 167.097 376.873 164.654 376.873 162.064V158.806C376.873 156.192 378.028 153.781 382.304 153.781C386.581 153.781 387.743 156.225 387.743 158.806V162.064C387.719 164.686 386.565 167.097 382.304 167.097ZM382.304 156.51C380.64 156.51 380.003 157.267 380.003 158.709V162.145C380.003 163.587 380.64 164.344 382.304 164.344C383.969 164.344 384.614 163.587 384.614 162.145V158.733C384.59 157.291 383.953 156.534 382.304 156.534V156.51Z" fill="white"/>
<path d="M396.016 156.74C394.869 157.271 393.764 157.892 392.711 158.597V166.831H389.581V154.069H392.225L392.432 155.478C393.447 154.777 394.547 154.215 395.705 153.808L396.016 156.74Z" fill="white"/>
<path d="M407.867 162.58C407.867 165.414 406.641 167.092 403.742 167.092C402.624 167.082 401.509 166.959 400.414 166.725V171.986L397.292 172.434V154.069H399.776L400.079 155.144C401.228 154.266 402.627 153.797 404.061 153.809C406.569 153.809 407.899 155.323 407.899 158.231L407.867 162.58ZM400.414 163.989C401.323 164.2 402.252 164.314 403.185 164.331C404.308 164.331 404.778 163.785 404.778 162.629V158.158C404.778 157.107 404.395 156.529 403.241 156.529C402.206 156.569 401.217 156.978 400.445 157.685L400.414 163.989Z" fill="white"/>
<path d="M286.32 142L274 149.265V149.273V166.718L278.627 169.454V152.001L286.32 147.457V142Z" fill="white"/>
<path d="M291.232 142V155.902H286.318V150.714L281.692 153.443V171.254L286.318 173.99V160.129H291.232V165.284L295.859 162.556V144.728L291.232 142Z" fill="white"/>
<path d="M291.233 174L303.553 166.735V166.727V149.282L298.926 146.546V163.999L291.233 168.543V174Z" fill="white"/>
<g filter="url(#filter1_d_102_179)">
<rect x="5" y="8" width="40" height="40" rx="5" fill="#1B181B"/>
<rect x="4.5" y="7.5" width="41" height="41" rx="5.5" stroke="#282828"/>
</g>
<path fill-rule="evenodd" clip-rule="evenodd" d="M21.8931 20.6176L28.1073 24.2152V31.4142L21.8931 27.8147V20.6176Z" fill="#7B42BC"/>
<path fill-rule="evenodd" clip-rule="evenodd" d="M28.7876 24.2152V31.4142L34.9999 27.8147V20.6176L28.7876 24.2152Z" fill="#7B42BC"/>
<path fill-rule="evenodd" clip-rule="evenodd" d="M15 16.6V23.7971L21.2123 27.3966V20.1995L15 16.6Z" fill="#7B42BC"/>
<path fill-rule="evenodd" clip-rule="evenodd" d="M21.8931 35.8005L28.1054 39.4V32.2502V32.2029L21.8931 28.6034V35.8005Z" fill="#7B42BC"/>
<g filter="url(#filter2_d_102_179)">
<rect x="85" y="8" width="40" height="40" rx="5" fill="#1B181B"/>
<rect x="84.5" y="7.5" width="41" height="41" rx="5.5" stroke="#282828"/>
</g>
<path d="M94 17L104.96 38.334L116 17H94ZM103.256 25.469H101.51V23.7229H103.256V25.469ZM103.256 22.8488H101.51V21.1047H103.256V22.8488ZM105.874 28.0872H104.128V26.3411H105.874V28.0872ZM105.874 25.469H104.128V23.7229H105.874V25.469ZM105.874 22.8488H104.128V21.1047H105.874V22.8488ZM108.478 25.469H106.732V23.7229H108.478V25.469ZM106.732 22.8488V21.1047H108.478V22.8488H106.732Z" fill="#FFD814"/>
<g filter="url(#filter3_d_102_179)">
<rect x="165" y="8" width="40" height="40" rx="5" fill="#1B181B"/>
<rect x="164.5" y="7.5" width="41" height="41" rx="5.5" stroke="#282828"/>
</g>
<path d="M185.009 39C183.219 39.0015 181.455 38.566 179.872 37.7314C178.288 36.8968 176.932 35.6883 175.921 34.2108C174.91 32.7333 174.276 31.0315 174.072 29.253C173.868 27.4745 174.101 25.6731 174.751 24.0052C175.401 22.3373 176.449 20.8532 177.802 19.6818C179.156 18.5105 180.775 17.6872 182.519 17.2834C184.263 16.8797 186.079 16.9077 187.81 17.365C189.541 17.8223 191.134 18.6951 192.451 19.9076V19.9076L189.84 22.6386C188.802 21.7011 187.515 21.0849 186.134 20.8644C184.753 20.644 183.338 20.8289 182.06 21.3967C180.782 21.9645 179.696 22.8909 178.934 24.0635C178.171 25.236 177.766 26.6045 177.766 28.003C177.766 29.4015 178.171 30.77 178.934 31.9426C179.696 33.1151 180.782 34.0415 182.06 34.6093C183.338 35.1771 184.753 35.362 186.134 35.1416C187.515 34.9212 188.802 34.3049 189.84 33.3675L192.451 36.0984C190.423 37.9664 187.766 39.0023 185.009 39V39Z" fill="#E03875"/>
<path d="M193.86 33.498C193.682 33.498 193.508 33.4452 193.36 33.3461C193.211 33.247 193.096 33.1062 193.027 32.9415C192.959 32.7767 192.941 32.5954 192.976 32.4205C193.011 32.2456 193.097 32.085 193.223 31.9589C193.349 31.8328 193.51 31.7469 193.685 31.7121C193.859 31.6774 194.041 31.6952 194.205 31.7635C194.37 31.8317 194.511 31.9473 194.61 32.0955C194.709 32.2438 194.762 32.4181 194.762 32.5964C194.762 32.8354 194.666 33.0644 194.497 33.2334C194.328 33.4023 194.099 33.4975 193.86 33.498V33.498Z" fill="#E03875"/>
<path d="M184.939 30.3835C184.467 30.3855 184.005 30.2473 183.611 29.9866C183.218 29.7258 182.911 29.3541 182.729 28.9186C182.547 28.4832 182.499 28.0035 182.59 27.5404C182.681 27.0773 182.907 26.6517 183.24 26.3174C183.573 25.9832 183.998 25.7553 184.461 25.6627C184.924 25.5702 185.404 25.6171 185.84 25.7975C186.276 25.9779 186.649 26.2837 186.911 26.6762C187.173 27.0686 187.313 27.53 187.312 28.002C187.311 28.6319 187.061 29.2358 186.616 29.682C186.172 30.1281 185.569 30.3803 184.939 30.3835V30.3835Z" fill="#E03875"/>
<path d="M194.895 30.4256C194.716 30.4256 194.542 30.3728 194.394 30.2737C194.245 30.1746 194.13 30.0338 194.062 29.8691C193.993 29.7043 193.975 29.523 194.01 29.3481C194.045 29.1733 194.131 29.0126 194.257 28.8865C194.383 28.7604 194.544 28.6746 194.719 28.6398C194.894 28.605 195.075 28.6228 195.24 28.6911C195.404 28.7593 195.545 28.8749 195.644 29.0231C195.743 29.1714 195.796 29.3457 195.796 29.524C195.796 29.763 195.7 29.992 195.531 30.161C195.363 30.33 195.133 30.4251 194.895 30.4256Z" fill="#E03875"/>
<path d="M192.214 30.3132C192.035 30.3132 191.86 30.2601 191.712 30.1605C191.563 30.061 191.448 29.9196 191.38 29.7543C191.312 29.589 191.295 29.4072 191.33 29.232C191.366 29.0568 191.453 28.8962 191.58 28.7705C191.707 28.6448 191.868 28.5598 192.044 28.5261C192.22 28.4925 192.401 28.5118 192.566 28.5816C192.73 28.6513 192.87 28.7685 192.968 28.918C193.066 29.0676 193.117 29.2429 193.115 29.4217C193.113 29.659 193.016 29.8858 192.848 30.0527C192.679 30.2196 192.451 30.3132 192.214 30.3132V30.3132Z" fill="#E03875"/>
<path d="M194.895 27.3876C194.716 27.3876 194.542 27.3347 194.394 27.2356C194.245 27.1365 194.13 26.9957 194.062 26.831C193.993 26.6662 193.975 26.485 194.01 26.3101C194.045 26.1352 194.131 25.9745 194.257 25.8484C194.383 25.7223 194.544 25.6365 194.719 25.6017C194.894 25.5669 195.075 25.5847 195.24 25.653C195.404 25.7212 195.545 25.8368 195.644 25.9851C195.743 26.1333 195.796 26.3076 195.796 26.486C195.796 26.7249 195.7 26.9539 195.531 27.1229C195.363 27.2919 195.133 27.387 194.895 27.3876Z" fill="#E03875"/>
<path d="M192.214 27.49C192.035 27.49 191.861 27.4371 191.713 27.338C191.565 27.239 191.449 27.0982 191.381 26.9334C191.313 26.7687 191.295 26.5874 191.329 26.4125C191.364 26.2376 191.45 26.0769 191.576 25.9508C191.702 25.8247 191.863 25.7389 192.038 25.7041C192.213 25.6693 192.394 25.6872 192.559 25.7554C192.724 25.8236 192.864 25.9392 192.963 26.0875C193.062 26.2357 193.115 26.4101 193.115 26.5884C193.115 26.8275 193.02 27.0568 192.851 27.2259C192.682 27.395 192.453 27.49 192.214 27.49V27.49Z" fill="#E03875"/>
<path d="M193.913 24.3555C193.734 24.3559 193.56 24.3033 193.411 24.2045C193.263 24.1057 193.147 23.965 193.078 23.8003C193.01 23.6356 192.992 23.4542 193.026 23.2792C193.061 23.1042 193.146 22.9433 193.272 22.817C193.398 22.6907 193.559 22.6047 193.734 22.5697C193.909 22.5348 194.09 22.5525 194.255 22.6207C194.42 22.6889 194.561 22.8044 194.66 22.9527C194.759 23.101 194.812 23.2754 194.812 23.4539C194.812 23.6926 194.718 23.9216 194.549 24.0907C194.38 24.2597 194.151 24.3549 193.913 24.3555Z" fill="#E03875"/>
<g filter="url(#filter4_d_102_179)">
<rect x="245" y="8" width="40" height="40" rx="5" fill="#1B181B"/>
<rect x="244.5" y="7.5" width="41" height="41" rx="5.5" stroke="#282828"/>
</g>
<path d="M259.586 38V36.4496H262.799V35.4916H261.241V33.9318H268.597L265.18 28L268.597 22.0664H261.058V30.2947H257V18H270.964L273.294 22.0457L269.866 28L273.364 34.0742L271.103 38H259.586Z" fill="#F24C53"/>
<path d="M260.211 33.9318H258.655V35.4916H260.211V33.9318Z" fill="#F24C53"/>
<path d="M258.556 36.4384H257V37.9982H258.556V36.4384Z" fill="#F24C53"/>
<g filter="url(#filter5_d_102_179)">
<rect x="325" y="8" width="40" height="40" rx="5" fill="#1B181B"/>
<rect x="324.5" y="7.5" width="41" height="41" rx="5.5" stroke="#282828"/>
</g>
<path d="M357 20L354.003 25.1944L351.006 20H357Z" fill="#14C6CB"/>
<path d="M341.001 23.468H339.001L343.999 32.1337L342 35.6L333 20H343L348 28.6674L348.999 26.9343L345 20H348.999L351.001 23.468L353 26.9343L348 35.6L341.001 23.468Z" fill="#14C6CB"/>
<g filter="url(#filter6_d_102_179)">
<rect x="405" y="8" width="40" height="40" rx="5" fill="#1B181B"/>
<rect x="404.5" y="7.5" width="41" height="41" rx="5.5" stroke="#282828"/>
</g>
<path d="M425 15.5L415 21.25V32.75L425 38.5L435 32.75V21.25L425 15.5ZM429.456 28.146L426.792 29.6787L423.573 27.9339V31.598L420.546 33.5094V25.848L422.947 24.3847L426.278 26.1335V22.3921L429.463 20.4906L429.456 28.146Z" fill="#06D092"/>
<g filter="url(#filter7_d_102_179)">
<rect x="485" y="8" width="40" height="40" rx="5" fill="#1B181B"/>
<rect x="484.5" y="7.5" width="41" height="41" rx="5.5" stroke="#282828"/>
</g>
<path d="M512.983 17.6L508.023 20.4774V22.244L505 29.3847L501.977 22.244V20.4774L497.017 17.6L494 19.3521V21.3855L500.719 37.9177L505 40.4L509.281 37.9177L516 21.3855V19.3521L512.983 17.6Z" fill="#1868F2"/>
<path d="M516 19.3521L511.039 22.2274V23.996L507.012 33.0399L505 34.2066V40.4L509.281 37.9176L516 21.3855V19.3521Z" fill="#0850C5"/>
<path d="M501.977 22.244V20.4774L498.958 22.2274V23.9961L502.988 33.04L505 31.8733V29.3848L501.977 22.244Z" fill="#0850C5"/>
<g filter="url(#filter8_d_102_179)">
<rect x="565" y="8" width="40" height="40" rx="5" fill="#1B181B"/>
<rect x="564.5" y="7.5" width="41" height="41" rx="5.5" stroke="#282828"/>
</g>
<path fill-rule="evenodd" clip-rule="evenodd" d="M578 18.3112L585.42 22.6194V38.5L578 34.1917V18.3112Z" fill="#02A8EF"/>
<path d="M589.095 20.1682L581.028 15.5V18.7378L586.516 21.9223V31.6453L589.097 33.1347C590.694 34.0604 592 33.5156 592 31.9024V24.7678C591.998 23.1641 590.688 21.0957 589.095 20.1682Z" fill="#02A8EF"/>
<g filter="url(#filter9_d_102_179)">
<rect x="645" y="8" width="141" height="40" rx="5" fill="#1B181B"/>
<rect x="644.5" y="7.5" width="142" height="41" rx="5.5" stroke="#282828"/>
</g>
<g clip-path="url(#clip0_102_179)">
<path d="M743.852 31.8804H748.479V32.6894H742.945V22.5488H743.852V31.8804Z" fill="white"/>
<path d="M751.969 32.0665C752.773 32.0494 753.572 31.931 754.346 31.7143L754.5 32.4281C753.664 32.7029 752.788 32.8427 751.907 32.8422C749.795 32.8422 749.115 31.7619 749.115 30.1439V27.8168C749.115 26.294 749.81 25.1233 751.921 25.1233C754.033 25.1233 754.654 26.294 754.654 27.8168V29.2445H750.012V30.1962C750.012 31.5002 750.475 32.0665 751.969 32.0665ZM750.012 28.4545H753.772V27.7883C753.772 26.5367 753.329 25.8847 751.921 25.8847C750.513 25.8847 749.993 26.5367 749.993 27.7883L750.012 28.4545Z" fill="white"/>
<path d="M761.162 32.6899H760.391L760.328 32.1093C759.568 32.5879 758.684 32.8422 757.783 32.8422C756.457 32.8422 755.854 32.095 755.854 30.7721C755.854 29.2016 756.582 28.7162 758.062 28.7162H760.28V27.2886C760.28 26.2654 759.745 25.9323 758.511 25.9323C757.764 25.9422 757.019 26.0235 756.288 26.175L756.148 25.4279C756.905 25.2406 757.682 25.1447 758.462 25.1423C760.391 25.1423 761.176 25.9038 761.176 27.2886L761.162 32.6899ZM760.265 29.5062H758.077C757.045 29.5062 756.737 29.8108 756.737 30.7863C756.737 31.6525 756.92 32.0474 757.971 32.0474C758.795 32.0224 759.593 31.7575 760.265 31.286V29.5062Z" fill="white"/>
<path d="M766.329 25.9894C765.501 26.3816 764.706 26.84 763.953 27.36V32.6899H763.061V25.2756H763.861L763.909 26.3987C764.633 25.8947 765.409 25.4673 766.223 25.1233L766.329 25.9894Z" fill="white"/>
<path d="M771.931 32.6899V26.689C771.931 26.1417 771.637 25.9418 771.111 25.9418C770.1 26.0404 769.118 26.3313 768.219 26.7984V32.6899H767.322V25.2756H768.108L768.171 25.9418C769.128 25.4803 770.165 25.2025 771.227 25.1233C772.398 25.1233 772.813 25.7753 772.813 26.7984V32.6899H771.931Z" fill="white"/>
<path d="M685.563 32.7227V28.4399H681.707V32.7227H679.774V22.525H681.731V26.7221H685.587V22.525H687.515V32.7227H685.563Z" fill="white"/>
<path d="M694.684 32.7231H693.112L692.977 32.2186C692.306 32.6468 691.525 32.8749 690.726 32.8753C689.347 32.8753 688.754 31.9236 688.754 30.6577C688.754 29.1396 689.424 28.5591 690.957 28.5591H692.755V27.7786C692.755 26.9506 692.519 26.6603 691.309 26.6603C690.606 26.6673 689.905 26.7438 689.217 26.8887L688.986 25.461C689.829 25.2307 690.699 25.1122 691.574 25.1089C693.946 25.1089 694.645 25.9369 694.645 27.8024L694.684 32.7231ZM692.755 29.9058H691.357C690.736 29.9058 690.567 30.0771 690.567 30.6434C690.567 31.2097 690.755 31.3715 691.348 31.3715C691.855 31.3688 692.353 31.2378 692.794 30.9908L692.755 29.9058Z" fill="white"/>
<path d="M698.328 32.8753C697.442 32.8627 696.562 32.7183 695.72 32.447L695.985 31.0194C696.715 31.2276 697.471 31.3365 698.231 31.343C699.07 31.343 699.195 31.1574 699.195 30.5911C699.195 30.1152 699.099 29.9011 697.875 29.6108C696.028 29.1682 695.811 28.7066 695.811 27.2694C695.811 25.8322 696.481 25.1089 698.636 25.1089C699.399 25.1086 700.16 25.1964 700.902 25.3706L700.714 26.8554C700.028 26.7292 699.334 26.6576 698.636 26.6412C697.812 26.6412 697.672 26.8221 697.672 27.2837C697.672 27.8785 697.72 27.9261 698.742 28.1879C700.854 28.7399 701.056 29.0159 701.056 30.5673C701.056 31.9902 700.608 32.8753 698.328 32.8753Z" fill="white"/>
<path d="M706.686 32.7227V27.5168C706.686 27.1218 706.513 26.9219 706.079 26.9219C705.386 27.0039 704.717 27.2223 704.112 27.5644V32.7227H702.218V22.2205L704.112 21.9587V25.8322C704.968 25.3986 705.908 25.1535 706.869 25.1137C708.127 25.1137 708.576 25.9893 708.576 27.3169V32.7227H706.686Z" fill="white"/>
<path d="M709.974 24.2334V22.054H711.863V24.2334H709.974ZM709.974 32.7465V25.266H711.863V32.7227L709.974 32.7465Z" fill="white"/>
<path d="M713.184 25.3279C713.184 23.4625 714.283 22.3728 716.857 22.3728C717.804 22.3729 718.748 22.4863 719.668 22.7107L719.451 24.3809C718.616 24.2225 717.769 24.1349 716.92 24.1192C715.57 24.1192 715.136 24.5951 715.136 25.6657V29.5868C715.136 30.6718 715.57 31.1334 716.92 31.1334C717.769 31.1153 718.616 31.0277 719.451 30.8716L719.668 32.5419C718.748 32.7646 717.804 32.8765 716.857 32.875C714.283 32.875 713.184 31.79 713.184 29.9199V25.3279Z" fill="white"/>
<path d="M723.543 32.8753C720.955 32.8753 720.256 31.4477 720.256 29.9391V28.0403C720.256 26.508 720.955 25.0994 723.543 25.0994C726.132 25.0994 726.831 26.527 726.831 28.0403V29.9439C726.831 31.4667 726.137 32.8753 723.543 32.8753ZM723.543 26.6888C722.536 26.6888 722.15 27.1314 722.15 27.9737V29.9772C722.15 30.8195 722.536 31.2668 723.543 31.2668C724.551 31.2668 724.941 30.8195 724.941 29.9772V27.9928C724.941 27.1504 724.57 26.7079 723.543 26.7079V26.6888Z" fill="white"/>
<path d="M731.859 26.8268C731.17 27.14 730.506 27.5043 729.872 27.9166V32.7231H727.944V25.2659H729.545L729.665 26.094C730.281 25.6836 730.949 25.354 731.651 25.1136L731.859 26.8268Z" fill="white"/>
<path d="M739.031 30.2434C739.031 31.8947 738.289 32.8749 736.534 32.8749C735.857 32.869 735.182 32.7972 734.519 32.6608V35.7396L732.625 36.0013V25.2659H734.129L734.317 25.8941C735.005 25.3849 735.843 25.1109 736.703 25.1137C738.226 25.1137 739.031 26.0035 739.031 27.7023V30.2434ZM734.519 31.0857C735.069 31.2063 735.629 31.2732 736.192 31.2856C736.876 31.2856 737.156 30.962 737.156 30.291V27.6548C737.156 27.0457 736.92 26.703 736.226 26.703C735.599 26.7242 735.001 26.9617 734.534 27.374L734.519 31.0857Z" fill="white"/>
<path d="M665.452 18.2185L658 22.4632V22.4679V32.6608L660.801 34.2549V24.0573L665.452 21.4068V18.2185Z" fill="white"/>
<path d="M668.431 18.2185V26.3367H665.452V23.3054L662.652 24.9043V35.3066L665.452 36.9102V28.8111H668.431V31.8233L671.232 30.2244V19.8126L668.431 18.2185Z" fill="white"/>
<path d="M668.431 36.915L675.889 32.6656V22.4679L673.083 20.8738V31.0714L668.431 33.722V36.915Z" fill="white"/>
</g>
<path d="M26 59V159H240" stroke="#383535"/>
<path d="M105.5 62V157.5" stroke="#383535"/>
<path d="M183.5 64.5V159" stroke="#383535"/>
<path d="M718 59V159L536 159" stroke="#383535"/>
<path d="M585 62V158.5" stroke="#383535"/>
<path d="M264 58.5V122" stroke="#383535"/>
<path d="M505 58.5V122" stroke="#383535"/>
<path d="M425 58.5V122" stroke="#383535"/>
<path d="M345 58.5V122" stroke="#383535"/>
<defs>
<filter id="filter0_d_102_179" x="246" y="130" width="284" height="63" filterUnits="userSpaceOnUse" color-interpolation-filters="sRGB">
<feFlood flood-opacity="0" result="BackgroundImageFix"/>
<feColorMatrix in="SourceAlpha" type="matrix" values="0 0 0 0 0 0 0 0 0 0 0 0 0 0 0 0 0 0 127 0" result="hardAlpha"/>
<feOffset dy="4"/>
<feGaussianBlur stdDeviation="2"/>
<feComposite in2="hardAlpha" operator="out"/>
<feColorMatrix type="matrix" values="0 0 0 0 0.0625 0 0 0 0 0.0625 0 0 0 0 0.0625 0 0 0 0.25 0"/>
<feBlend mode="normal" in2="BackgroundImageFix" result="effect1_dropShadow_102_179"/>
<feBlend mode="normal" in="SourceGraphic" in2="effect1_dropShadow_102_179" result="shape"/>
</filter>
<filter id="filter1_d_102_179" x="0" y="7" width="50" height="50" filterUnits="userSpaceOnUse" color-interpolation-filters="sRGB">
<feFlood flood-opacity="0" result="BackgroundImageFix"/>
<feColorMatrix in="SourceAlpha" type="matrix" values="0 0 0 0 0 0 0 0 0 0 0 0 0 0 0 0 0 0 127 0" result="hardAlpha"/>
<feOffset dy="4"/>
<feGaussianBlur stdDeviation="2"/>
<feComposite in2="hardAlpha" operator="out"/>
<feColorMatrix type="matrix" values="0 0 0 0 0.0625 0 0 0 0 0.0625 0 0 0 0 0.0625 0 0 0 0.25 0"/>
<feBlend mode="normal" in2="BackgroundImageFix" result="effect1_dropShadow_102_179"/>
<feBlend mode="normal" in="SourceGraphic" in2="effect1_dropShadow_102_179" result="shape"/>
</filter>
<filter id="filter2_d_102_179" x="80" y="7" width="50" height="50" filterUnits="userSpaceOnUse" color-interpolation-filters="sRGB">
<feFlood flood-opacity="0" result="BackgroundImageFix"/>
<feColorMatrix in="SourceAlpha" type="matrix" values="0 0 0 0 0 0 0 0 0 0 0 0 0 0 0 0 0 0 127 0" result="hardAlpha"/>
<feOffset dy="4"/>
<feGaussianBlur stdDeviation="2"/>
<feComposite in2="hardAlpha" operator="out"/>
<feColorMatrix type="matrix" values="0 0 0 0 0.0625 0 0 0 0 0.0625 0 0 0 0 0.0625 0 0 0 0.25 0"/>
<feBlend mode="normal" in2="BackgroundImageFix" result="effect1_dropShadow_102_179"/>
<feBlend mode="normal" in="SourceGraphic" in2="effect1_dropShadow_102_179" result="shape"/>
</filter>
<filter id="filter3_d_102_179" x="160" y="7" width="50" height="50" filterUnits="userSpaceOnUse" color-interpolation-filters="sRGB">
<feFlood flood-opacity="0" result="BackgroundImageFix"/>
<feColorMatrix in="SourceAlpha" type="matrix" values="0 0 0 0 0 0 0 0 0 0 0 0 0 0 0 0 0 0 127 0" result="hardAlpha"/>
<feOffset dy="4"/>
<feGaussianBlur stdDeviation="2"/>
<feComposite in2="hardAlpha" operator="out"/>
<feColorMatrix type="matrix" values="0 0 0 0 0.0625 0 0 0 0 0.0625 0 0 0 0 0.0625 0 0 0 0.25 0"/>
<feBlend mode="normal" in2="BackgroundImageFix" result="effect1_dropShadow_102_179"/>
<feBlend mode="normal" in="SourceGraphic" in2="effect1_dropShadow_102_179" result="shape"/>
</filter>
<filter id="filter4_d_102_179" x="240" y="7" width="50" height="50" filterUnits="userSpaceOnUse" color-interpolation-filters="sRGB">
<feFlood flood-opacity="0" result="BackgroundImageFix"/>
<feColorMatrix in="SourceAlpha" type="matrix" values="0 0 0 0 0 0 0 0 0 0 0 0 0 0 0 0 0 0 127 0" result="hardAlpha"/>
<feOffset dy="4"/>
<feGaussianBlur stdDeviation="2"/>
<feComposite in2="hardAlpha" operator="out"/>
<feColorMatrix type="matrix" values="0 0 0 0 0.0625 0 0 0 0 0.0625 0 0 0 0 0.0625 0 0 0 0.25 0"/>
<feBlend mode="normal" in2="BackgroundImageFix" result="effect1_dropShadow_102_179"/>
<feBlend mode="normal" in="SourceGraphic" in2="effect1_dropShadow_102_179" result="shape"/>
</filter>
<filter id="filter5_d_102_179" x="320" y="7" width="50" height="50" filterUnits="userSpaceOnUse" color-interpolation-filters="sRGB">
<feFlood flood-opacity="0" result="BackgroundImageFix"/>
<feColorMatrix in="SourceAlpha" type="matrix" values="0 0 0 0 0 0 0 0 0 0 0 0 0 0 0 0 0 0 127 0" result="hardAlpha"/>
<feOffset dy="4"/>
<feGaussianBlur stdDeviation="2"/>
<feComposite in2="hardAlpha" operator="out"/>
<feColorMatrix type="matrix" values="0 0 0 0 0.0625 0 0 0 0 0.0625 0 0 0 0 0.0625 0 0 0 0.25 0"/>
<feBlend mode="normal" in2="BackgroundImageFix" result="effect1_dropShadow_102_179"/>
<feBlend mode="normal" in="SourceGraphic" in2="effect1_dropShadow_102_179" result="shape"/>
</filter>
<filter id="filter6_d_102_179" x="400" y="7" width="50" height="50" filterUnits="userSpaceOnUse" color-interpolation-filters="sRGB">
<feFlood flood-opacity="0" result="BackgroundImageFix"/>
<feColorMatrix in="SourceAlpha" type="matrix" values="0 0 0 0 0 0 0 0 0 0 0 0 0 0 0 0 0 0 127 0" result="hardAlpha"/>
<feOffset dy="4"/>
<feGaussianBlur stdDeviation="2"/>
<feComposite in2="hardAlpha" operator="out"/>
<feColorMatrix type="matrix" values="0 0 0 0 0.0625 0 0 0 0 0.0625 0 0 0 0 0.0625 0 0 0 0.25 0"/>
<feBlend mode="normal" in2="BackgroundImageFix" result="effect1_dropShadow_102_179"/>
<feBlend mode="normal" in="SourceGraphic" in2="effect1_dropShadow_102_179" result="shape"/>
</filter>
<filter id="filter7_d_102_179" x="480" y="7" width="50" height="50" filterUnits="userSpaceOnUse" color-interpolation-filters="sRGB">
<feFlood flood-opacity="0" result="BackgroundImageFix"/>
<feColorMatrix in="SourceAlpha" type="matrix" values="0 0 0 0 0 0 0 0 0 0 0 0 0 0 0 0 0 0 127 0" result="hardAlpha"/>
<feOffset dy="4"/>
<feGaussianBlur stdDeviation="2"/>
<feComposite in2="hardAlpha" operator="out"/>
<feColorMatrix type="matrix" values="0 0 0 0 0.0625 0 0 0 0 0.0625 0 0 0 0 0.0625 0 0 0 0.25 0"/>
<feBlend mode="normal" in2="BackgroundImageFix" result="effect1_dropShadow_102_179"/>
<feBlend mode="normal" in="SourceGraphic" in2="effect1_dropShadow_102_179" result="shape"/>
</filter>
<filter id="filter8_d_102_179" x="560" y="7" width="50" height="50" filterUnits="userSpaceOnUse" color-interpolation-filters="sRGB">
<feFlood flood-opacity="0" result="BackgroundImageFix"/>
<feColorMatrix in="SourceAlpha" type="matrix" values="0 0 0 0 0 0 0 0 0 0 0 0 0 0 0 0 0 0 127 0" result="hardAlpha"/>
<feOffset dy="4"/>
<feGaussianBlur stdDeviation="2"/>
<feComposite in2="hardAlpha" operator="out"/>
<feColorMatrix type="matrix" values="0 0 0 0 0.0625 0 0 0 0 0.0625 0 0 0 0 0.0625 0 0 0 0.25 0"/>
<feBlend mode="normal" in2="BackgroundImageFix" result="effect1_dropShadow_102_179"/>
<feBlend mode="normal" in="SourceGraphic" in2="effect1_dropShadow_102_179" result="shape"/>
</filter>
<filter id="filter9_d_102_179" x="640" y="7" width="151" height="50" filterUnits="userSpaceOnUse" color-interpolation-filters="sRGB">
<feFlood flood-opacity="0" result="BackgroundImageFix"/>
<feColorMatrix in="SourceAlpha" type="matrix" values="0 0 0 0 0 0 0 0 0 0 0 0 0 0 0 0 0 0 127 0" result="hardAlpha"/>
<feOffset dy="4"/>
<feGaussianBlur stdDeviation="2"/>
<feComposite in2="hardAlpha" operator="out"/>
<feColorMatrix type="matrix" values="0 0 0 0 0.0625 0 0 0 0 0.0625 0 0 0 0 0.0625 0 0 0 0.25 0"/>
<feBlend mode="normal" in2="BackgroundImageFix" result="effect1_dropShadow_102_179"/>
<feBlend mode="normal" in="SourceGraphic" in2="effect1_dropShadow_102_179" result="shape"/>
</filter>
<clipPath id="clip0_102_179">
<rect width="115" height="19" fill="white" transform="translate(658 18)"/>
</clipPath>
</defs>
</svg>
