<svg width="408" height="258" viewBox="0 0 408 258" fill="none" xmlns="http://www.w3.org/2000/svg">
<rect x="131" y="25" width="146" height="198" fill="#282828"/>
<g filter="url(#filter0_d_242_16780)">
<mask id="path-2-outside-1_242_16780" maskUnits="userSpaceOnUse" x="4" y="0" width="400" height="250" fill="black">
<rect fill="white" x="4" width="400" height="250"/>
<path fill-rule="evenodd" clip-rule="evenodd" d="M204 223.756C233.777 201.107 253 165.298 253 125C253 84.7017 233.777 48.8933 204 26.2444C224.826 10.4036 250.815 1 279 1C347.483 1 403 56.5167 403 125C403 193.483 347.483 249 279 249C250.815 249 224.826 239.596 204 223.756ZM204 223.756C183.174 239.596 157.185 249 129 249C60.5167 249 5 193.483 5 125C5 56.5167 60.5167 1 129 1C157.185 1 183.174 10.4036 204 26.2444C174.223 48.8933 155 84.7017 155 125C155 165.298 174.223 201.107 204 223.756Z"/>
</mask>
<path fill-rule="evenodd" clip-rule="evenodd" d="M204 223.756C233.777 201.107 253 165.298 253 125C253 84.7017 233.777 48.8933 204 26.2444C224.826 10.4036 250.815 1 279 1C347.483 1 403 56.5167 403 125C403 193.483 347.483 249 279 249C250.815 249 224.826 239.596 204 223.756ZM204 223.756C183.174 239.596 157.185 249 129 249C60.5167 249 5 193.483 5 125C5 56.5167 60.5167 1 129 1C157.185 1 183.174 10.4036 204 26.2444C174.223 48.8933 155 84.7017 155 125C155 165.298 174.223 201.107 204 223.756Z" fill="#1B181B"/>
<path d="M252 125C252 164.973 232.933 200.492 203.395 222.96L204.605 224.551C234.62 201.722 254 165.624 254 125H252ZM203.395 27.0404C232.933 49.5083 252 85.0273 252 125H254C254 84.3761 234.62 48.2784 204.605 25.4485L203.395 27.0404ZM204.605 27.0404C225.264 11.3273 251.041 2 279 2V0C250.589 0 224.389 9.47985 203.395 25.4485L204.605 27.0404ZM279 2C346.931 2 402 57.069 402 125H404C404 55.9644 348.036 0 279 0V2ZM402 125C402 192.931 346.931 248 279 248V250C348.036 250 404 194.036 404 125H402ZM279 248C251.041 248 225.264 238.673 204.605 222.96L203.395 224.551C224.389 240.52 250.589 250 279 250V248ZM203.395 222.96C182.736 238.673 156.959 248 129 248V250C157.411 250 183.611 240.52 204.605 224.551L203.395 222.96ZM129 248C61.069 248 6 192.931 6 125H4C4 194.036 59.9644 250 129 250V248ZM6 125C6 57.069 61.069 2 129 2V0C59.9644 0 4 55.9644 4 125H6ZM129 2C156.959 2 182.736 11.3273 203.395 27.0404L204.605 25.4485C183.611 9.47985 157.411 0 129 0V2ZM156 125C156 85.0273 175.067 49.5083 204.605 27.0404L203.395 25.4485C173.38 48.2784 154 84.3761 154 125H156ZM204.605 222.96C175.067 200.492 156 164.973 156 125H154C154 165.624 173.38 201.722 203.395 224.551L204.605 222.96Z" fill="#282828" mask="url(#path-2-outside-1_242_16780)"/>
</g>
<path d="M52.0942 130V120.618H48.6885V119.431H56.8184V120.618H53.4126V130H52.0942ZM60.2388 130.139C59.6431 130.139 59.1426 130.027 58.7373 129.802C58.332 129.573 58.0269 129.241 57.8218 128.806C57.6216 128.367 57.5215 127.837 57.5215 127.217V122.104H58.7959V126.909C58.7959 127.617 58.9326 128.145 59.2061 128.491C59.4844 128.838 59.9385 129.011 60.5684 129.011C60.915 129.011 61.2202 128.96 61.4839 128.857C61.7524 128.755 61.9771 128.608 62.1577 128.418C62.3384 128.223 62.4727 127.988 62.5605 127.715C62.6533 127.437 62.6997 127.124 62.6997 126.777V122.104H63.9741V130H62.6997V128.821H62.5825C62.4556 129.099 62.2822 129.338 62.0625 129.539C61.8428 129.734 61.5791 129.883 61.2715 129.985C60.9688 130.088 60.6245 130.139 60.2388 130.139ZM69.1597 130.059C68.3491 130.059 67.7607 129.895 67.3945 129.568C67.0332 129.241 66.8525 128.701 66.8525 127.949V123.159H65.6074V122.104H66.8525V120.061H68.1709V122.104H69.8994V123.159H68.1709V127.627C68.1709 128.091 68.2588 128.425 68.4346 128.63C68.6104 128.831 68.9033 128.931 69.3135 128.931C69.4258 128.931 69.521 128.928 69.5991 128.923C69.6821 128.918 69.7822 128.911 69.8994 128.901V129.985C69.7773 130.005 69.6553 130.022 69.5332 130.037C69.4111 130.051 69.2866 130.059 69.1597 130.059ZM74.9458 130.139C74.1987 130.139 73.5518 129.976 73.0049 129.648C72.4629 129.316 72.043 128.845 71.7451 128.235C71.4521 127.625 71.3057 126.899 71.3057 126.06V126.045C71.3057 125.2 71.4521 124.473 71.7451 123.862C72.043 123.252 72.4629 122.783 73.0049 122.456C73.5518 122.129 74.1987 121.965 74.9458 121.965C75.6978 121.965 76.3447 122.129 76.8867 122.456C77.4287 122.783 77.8462 123.252 78.1392 123.862C78.437 124.473 78.5859 125.2 78.5859 126.045V126.06C78.5859 126.899 78.437 127.625 78.1392 128.235C77.8462 128.845 77.4287 129.316 76.8867 129.648C76.3447 129.976 75.6978 130.139 74.9458 130.139ZM74.9458 129.011C75.4438 129.011 75.8662 128.894 76.2129 128.66C76.5596 128.425 76.8232 128.088 77.0039 127.649C77.1895 127.209 77.2822 126.68 77.2822 126.06V126.045C77.2822 125.42 77.1895 124.888 77.0039 124.448C76.8232 124.009 76.5596 123.674 76.2129 123.445C75.8662 123.21 75.4438 123.093 74.9458 123.093C74.4478 123.093 74.0254 123.21 73.6787 123.445C73.332 123.674 73.0659 124.009 72.8804 124.448C72.6997 124.888 72.6094 125.42 72.6094 126.045V126.06C72.6094 126.68 72.6997 127.209 72.8804 127.649C73.0659 128.088 73.332 128.425 73.6787 128.66C74.0254 128.894 74.4478 129.011 74.9458 129.011ZM80.5635 130V122.104H81.8379V123.276H81.9551C82.1064 122.861 82.3628 122.539 82.7241 122.31C83.0854 122.08 83.5322 121.965 84.0645 121.965C84.1865 121.965 84.3062 121.973 84.4233 121.987C84.5454 121.997 84.6382 122.007 84.7017 122.017V123.254C84.5698 123.23 84.4404 123.213 84.3135 123.203C84.1914 123.188 84.0596 123.181 83.918 123.181C83.5127 123.181 83.1538 123.262 82.8413 123.423C82.5288 123.584 82.2822 123.809 82.1016 124.097C81.9258 124.385 81.8379 124.722 81.8379 125.107V130H80.5635ZM86.3057 130V122.104H87.5801V130H86.3057ZM86.9502 120.581C86.7109 120.581 86.5034 120.496 86.3276 120.325C86.1567 120.149 86.0713 119.941 86.0713 119.702C86.0713 119.458 86.1567 119.25 86.3276 119.08C86.5034 118.909 86.7109 118.823 86.9502 118.823C87.1943 118.823 87.4019 118.909 87.5728 119.08C87.7437 119.25 87.8291 119.458 87.8291 119.702C87.8291 119.941 87.7437 120.149 87.5728 120.325C87.4019 120.496 87.1943 120.581 86.9502 120.581ZM92.1504 130.139C91.6523 130.139 91.2031 130.044 90.8027 129.854C90.4072 129.663 90.0923 129.392 89.8579 129.041C89.6284 128.689 89.5137 128.274 89.5137 127.795V127.781C89.5137 127.312 89.626 126.912 89.8506 126.58C90.0752 126.243 90.4023 125.979 90.832 125.789C91.2617 125.598 91.7817 125.486 92.3921 125.452L95.2925 125.276V126.294L92.5459 126.47C91.9453 126.504 91.5059 126.628 91.2275 126.843C90.9541 127.058 90.8174 127.361 90.8174 127.751V127.766C90.8174 128.167 90.9688 128.479 91.2715 128.704C91.5742 128.923 91.9551 129.033 92.4141 129.033C92.8486 129.033 93.2344 128.948 93.5713 128.777C93.9082 128.601 94.1719 128.364 94.3623 128.066C94.5576 127.769 94.6553 127.432 94.6553 127.056V124.595C94.6553 124.106 94.5063 123.735 94.2085 123.481C93.9155 123.223 93.4736 123.093 92.8828 123.093C92.4092 123.093 92.021 123.179 91.7183 123.35C91.4155 123.516 91.2129 123.752 91.1104 124.06L91.103 124.082H89.8286L89.8359 124.038C89.9043 123.623 90.0752 123.262 90.3486 122.954C90.627 122.642 90.9858 122.4 91.4253 122.229C91.8647 122.053 92.3652 121.965 92.9268 121.965C93.5713 121.965 94.1157 122.07 94.5601 122.28C95.0093 122.49 95.3486 122.793 95.5781 123.188C95.8125 123.579 95.9297 124.048 95.9297 124.595V130H94.6553V128.835H94.5381C94.3721 129.114 94.1694 129.351 93.9302 129.546C93.6958 129.741 93.4297 129.89 93.1318 129.993C92.834 130.09 92.5068 130.139 92.1504 130.139ZM98.332 130V118.97H99.6064V130H98.332ZM104.763 130.139C104.177 130.139 103.659 130.051 103.21 129.875C102.761 129.695 102.399 129.443 102.126 129.121C101.857 128.799 101.699 128.42 101.65 127.986H102.954C103.061 128.313 103.271 128.577 103.583 128.777C103.896 128.977 104.304 129.077 104.807 129.077C105.163 129.077 105.476 129.026 105.744 128.923C106.018 128.816 106.232 128.672 106.389 128.491C106.545 128.306 106.623 128.093 106.623 127.854V127.839C106.623 127.571 106.516 127.344 106.301 127.158C106.086 126.968 105.734 126.814 105.246 126.697L104.023 126.404C103.53 126.287 103.125 126.135 102.807 125.95C102.49 125.759 102.255 125.527 102.104 125.254C101.953 124.976 101.877 124.648 101.877 124.272V124.265C101.877 123.826 102.004 123.433 102.258 123.086C102.517 122.739 102.868 122.466 103.312 122.266C103.757 122.065 104.257 121.965 104.814 121.965C105.366 121.965 105.854 122.053 106.279 122.229C106.708 122.4 107.053 122.644 107.312 122.961C107.575 123.279 107.736 123.652 107.795 124.082H106.542C106.459 123.77 106.269 123.516 105.971 123.32C105.673 123.125 105.285 123.027 104.807 123.027C104.494 123.027 104.216 123.079 103.972 123.181C103.728 123.279 103.535 123.416 103.393 123.591C103.251 123.767 103.181 123.972 103.181 124.207V124.221C103.181 124.397 103.227 124.553 103.32 124.69C103.413 124.827 103.557 124.946 103.752 125.049C103.947 125.151 104.199 125.242 104.506 125.32L105.722 125.613C106.464 125.793 107.016 126.052 107.377 126.389C107.744 126.726 107.927 127.178 107.927 127.744V127.759C107.927 128.228 107.788 128.643 107.509 129.004C107.231 129.36 106.853 129.639 106.374 129.839C105.9 130.039 105.363 130.139 104.763 130.139Z" fill="white"/>
<path d="M294.348 130V119.431H298.383C299.062 119.431 299.653 119.563 300.156 119.827C300.664 120.085 301.057 120.449 301.335 120.918C301.613 121.387 301.752 121.938 301.752 122.573V122.588C301.752 123.32 301.564 123.955 301.188 124.492C300.812 125.029 300.292 125.403 299.628 125.613L302.075 130H300.529L298.266 125.818C298.256 125.818 298.244 125.818 298.229 125.818C298.215 125.818 298.203 125.818 298.193 125.818H295.666V130H294.348ZM295.666 124.646H298.266C298.945 124.646 299.467 124.473 299.833 124.126C300.205 123.774 300.39 123.276 300.39 122.632V122.617C300.39 121.987 300.197 121.494 299.812 121.138C299.426 120.781 298.891 120.603 298.208 120.603H295.666V124.646ZM306.989 130.139C306.237 130.139 305.59 129.973 305.048 129.641C304.511 129.309 304.096 128.84 303.803 128.235C303.515 127.625 303.371 126.907 303.371 126.082V126.074C303.371 125.259 303.515 124.543 303.803 123.928C304.096 123.313 304.509 122.832 305.041 122.485C305.573 122.139 306.196 121.965 306.909 121.965C307.626 121.965 308.242 122.131 308.754 122.463C309.272 122.795 309.667 123.259 309.941 123.855C310.219 124.446 310.358 125.134 310.358 125.92V126.418H304.03V125.4H309.707L309.077 126.331V125.825C309.077 125.205 308.984 124.695 308.798 124.294C308.613 123.894 308.356 123.596 308.029 123.401C307.702 123.201 307.326 123.101 306.901 123.101C306.477 123.101 306.096 123.206 305.759 123.416C305.427 123.621 305.163 123.926 304.968 124.331C304.772 124.736 304.675 125.234 304.675 125.825V126.331C304.675 126.892 304.77 127.373 304.96 127.773C305.151 128.169 305.422 128.474 305.773 128.689C306.125 128.899 306.54 129.004 307.019 129.004C307.375 129.004 307.685 128.955 307.949 128.857C308.212 128.76 308.43 128.635 308.601 128.484C308.771 128.333 308.891 128.179 308.959 128.022L308.989 127.957H310.263L310.249 128.015C310.18 128.284 310.058 128.545 309.882 128.799C309.711 129.048 309.489 129.275 309.216 129.48C308.942 129.68 308.618 129.841 308.242 129.963C307.871 130.081 307.453 130.139 306.989 130.139ZM312.863 130V123.159H311.552V122.104H312.863V121.226C312.863 120.698 312.949 120.264 313.12 119.922C313.295 119.575 313.554 119.319 313.896 119.153C314.238 118.982 314.658 118.896 315.156 118.896C315.312 118.896 315.458 118.904 315.595 118.918C315.737 118.928 315.874 118.945 316.005 118.97V119.988C315.927 119.973 315.837 119.963 315.734 119.958C315.632 119.954 315.524 119.951 315.412 119.951C314.958 119.951 314.631 120.061 314.431 120.281C314.235 120.5 314.138 120.828 314.138 121.262V122.104H315.932V123.159H314.138V130H312.863ZM320.671 130.139C319.919 130.139 319.272 129.973 318.73 129.641C318.193 129.309 317.778 128.84 317.485 128.235C317.197 127.625 317.053 126.907 317.053 126.082V126.074C317.053 125.259 317.197 124.543 317.485 123.928C317.778 123.313 318.19 122.832 318.723 122.485C319.255 122.139 319.877 121.965 320.59 121.965C321.308 121.965 321.923 122.131 322.436 122.463C322.954 122.795 323.349 123.259 323.623 123.855C323.901 124.446 324.04 125.134 324.04 125.92V126.418H317.712V125.4H323.388L322.758 126.331V125.825C322.758 125.205 322.666 124.695 322.48 124.294C322.294 123.894 322.038 123.596 321.711 123.401C321.384 123.201 321.008 123.101 320.583 123.101C320.158 123.101 319.777 123.206 319.44 123.416C319.108 123.621 318.845 123.926 318.649 124.331C318.454 124.736 318.356 125.234 318.356 125.825V126.331C318.356 126.892 318.452 127.373 318.642 127.773C318.833 128.169 319.104 128.474 319.455 128.689C319.807 128.899 320.222 129.004 320.7 129.004C321.057 129.004 321.367 128.955 321.63 128.857C321.894 128.76 322.111 128.635 322.282 128.484C322.453 128.333 322.573 128.179 322.641 128.022L322.67 127.957H323.945L323.93 128.015C323.862 128.284 323.74 128.545 323.564 128.799C323.393 129.048 323.171 129.275 322.897 129.48C322.624 129.68 322.299 129.841 321.923 129.963C321.552 130.081 321.135 130.139 320.671 130.139ZM326.018 130V122.104H327.292V123.276H327.409C327.561 122.861 327.817 122.539 328.178 122.31C328.54 122.08 328.986 121.965 329.519 121.965C329.641 121.965 329.76 121.973 329.877 121.987C330 121.997 330.092 122.007 330.156 122.017V123.254C330.024 123.23 329.895 123.213 329.768 123.203C329.646 123.188 329.514 123.181 329.372 123.181C328.967 123.181 328.608 123.262 328.295 123.423C327.983 123.584 327.736 123.809 327.556 124.097C327.38 124.385 327.292 124.722 327.292 125.107V130H326.018ZM334.733 130.139C333.981 130.139 333.334 129.973 332.792 129.641C332.255 129.309 331.84 128.84 331.547 128.235C331.259 127.625 331.115 126.907 331.115 126.082V126.074C331.115 125.259 331.259 124.543 331.547 123.928C331.84 123.313 332.253 122.832 332.785 122.485C333.317 122.139 333.94 121.965 334.653 121.965C335.371 121.965 335.986 122.131 336.499 122.463C337.016 122.795 337.412 123.259 337.685 123.855C337.963 124.446 338.103 125.134 338.103 125.92V126.418H331.774V125.4H337.451L336.821 126.331V125.825C336.821 125.205 336.728 124.695 336.542 124.294C336.357 123.894 336.101 123.596 335.773 123.401C335.446 123.201 335.07 123.101 334.646 123.101C334.221 123.101 333.84 123.206 333.503 123.416C333.171 123.621 332.907 123.926 332.712 124.331C332.517 124.736 332.419 125.234 332.419 125.825V126.331C332.419 126.892 332.514 127.373 332.705 127.773C332.895 128.169 333.166 128.474 333.518 128.689C333.869 128.899 334.284 129.004 334.763 129.004C335.119 129.004 335.429 128.955 335.693 128.857C335.957 128.76 336.174 128.635 336.345 128.484C336.516 128.333 336.635 128.179 336.704 128.022L336.733 127.957H338.007L337.993 128.015C337.924 128.284 337.802 128.545 337.626 128.799C337.456 129.048 337.233 129.275 336.96 129.48C336.687 129.68 336.362 129.841 335.986 129.963C335.615 130.081 335.197 130.139 334.733 130.139ZM340.08 130V122.104H341.354V123.291H341.472C341.672 122.871 341.96 122.546 342.336 122.317C342.712 122.083 343.19 121.965 343.771 121.965C344.66 121.965 345.341 122.219 345.815 122.727C346.293 123.23 346.533 123.95 346.533 124.888V130H345.258V125.195C345.258 124.482 345.107 123.955 344.804 123.613C344.506 123.267 344.042 123.093 343.413 123.093C342.993 123.093 342.629 123.184 342.321 123.364C342.014 123.545 341.774 123.801 341.604 124.133C341.438 124.465 341.354 124.863 341.354 125.327V130H340.08ZM352.07 130.139C351.333 130.139 350.693 129.971 350.151 129.634C349.609 129.297 349.189 128.821 348.891 128.206C348.593 127.59 348.444 126.865 348.444 126.03V126.016C348.444 125.195 348.591 124.482 348.884 123.877C349.182 123.271 349.602 122.803 350.144 122.471C350.686 122.134 351.325 121.965 352.062 121.965C352.702 121.965 353.254 122.078 353.718 122.302C354.182 122.527 354.553 122.83 354.831 123.21C355.109 123.586 355.288 124.009 355.366 124.478L355.373 124.521H354.106L354.099 124.5C354.001 124.109 353.779 123.777 353.432 123.503C353.085 123.23 352.629 123.093 352.062 123.093C351.589 123.093 351.179 123.213 350.832 123.452C350.485 123.691 350.217 124.031 350.026 124.47C349.841 124.905 349.748 125.42 349.748 126.016V126.03C349.748 126.636 349.843 127.163 350.034 127.612C350.224 128.057 350.493 128.401 350.839 128.645C351.186 128.889 351.594 129.011 352.062 129.011C352.595 129.011 353.029 128.896 353.366 128.667C353.703 128.438 353.945 128.103 354.091 127.664L354.106 127.62L355.366 127.612L355.351 127.693C355.244 128.167 355.053 128.589 354.78 128.96C354.506 129.326 354.145 129.614 353.696 129.824C353.247 130.034 352.705 130.139 352.07 130.139ZM360.456 130.139C359.704 130.139 359.057 129.973 358.515 129.641C357.978 129.309 357.563 128.84 357.27 128.235C356.982 127.625 356.838 126.907 356.838 126.082V126.074C356.838 125.259 356.982 124.543 357.27 123.928C357.563 123.313 357.976 122.832 358.508 122.485C359.04 122.139 359.663 121.965 360.375 121.965C361.093 121.965 361.708 122.131 362.221 122.463C362.739 122.795 363.134 123.259 363.408 123.855C363.686 124.446 363.825 125.134 363.825 125.92V126.418H357.497V125.4H363.173L362.543 126.331V125.825C362.543 125.205 362.451 124.695 362.265 124.294C362.08 123.894 361.823 123.596 361.496 123.401C361.169 123.201 360.793 123.101 360.368 123.101C359.943 123.101 359.562 123.206 359.226 123.416C358.894 123.621 358.63 123.926 358.435 124.331C358.239 124.736 358.142 125.234 358.142 125.825V126.331C358.142 126.892 358.237 127.373 358.427 127.773C358.618 128.169 358.889 128.474 359.24 128.689C359.592 128.899 360.007 129.004 360.485 129.004C360.842 129.004 361.152 128.955 361.416 128.857C361.679 128.76 361.896 128.635 362.067 128.484C362.238 128.333 362.358 128.179 362.426 128.022L362.456 127.957H363.73L363.715 128.015C363.647 128.284 363.525 128.545 363.349 128.799C363.178 129.048 362.956 129.275 362.683 129.48C362.409 129.68 362.084 129.841 361.708 129.963C361.337 130.081 360.92 130.139 360.456 130.139Z" fill="white"/>
<path d="M177.348 130V119.431H178.666V128.813H183.764V130H177.348ZM188.568 130.139C187.816 130.139 187.169 129.973 186.627 129.641C186.09 129.309 185.675 128.84 185.382 128.235C185.094 127.625 184.95 126.907 184.95 126.082V126.074C184.95 125.259 185.094 124.543 185.382 123.928C185.675 123.313 186.088 122.832 186.62 122.485C187.152 122.139 187.775 121.965 188.488 121.965C189.206 121.965 189.821 122.131 190.333 122.463C190.851 122.795 191.247 123.259 191.52 123.855C191.798 124.446 191.938 125.134 191.938 125.92V126.418H185.609V125.4H191.286L190.656 126.331V125.825C190.656 125.205 190.563 124.695 190.377 124.294C190.192 123.894 189.936 123.596 189.608 123.401C189.281 123.201 188.905 123.101 188.48 123.101C188.056 123.101 187.675 123.206 187.338 123.416C187.006 123.621 186.742 123.926 186.547 124.331C186.352 124.736 186.254 125.234 186.254 125.825V126.331C186.254 126.892 186.349 127.373 186.54 127.773C186.73 128.169 187.001 128.474 187.353 128.689C187.704 128.899 188.119 129.004 188.598 129.004C188.954 129.004 189.264 128.955 189.528 128.857C189.792 128.76 190.009 128.635 190.18 128.484C190.351 128.333 190.47 128.179 190.539 128.022L190.568 127.957H191.842L191.828 128.015C191.759 128.284 191.637 128.545 191.461 128.799C191.291 129.048 191.068 129.275 190.795 129.48C190.521 129.68 190.197 129.841 189.821 129.963C189.45 130.081 189.032 130.139 188.568 130.139ZM196.083 130.139C195.585 130.139 195.136 130.044 194.735 129.854C194.34 129.663 194.025 129.392 193.791 129.041C193.561 128.689 193.446 128.274 193.446 127.795V127.781C193.446 127.312 193.559 126.912 193.783 126.58C194.008 126.243 194.335 125.979 194.765 125.789C195.194 125.598 195.714 125.486 196.325 125.452L199.225 125.276V126.294L196.479 126.47C195.878 126.504 195.438 126.628 195.16 126.843C194.887 127.058 194.75 127.361 194.75 127.751V127.766C194.75 128.167 194.901 128.479 195.204 128.704C195.507 128.923 195.888 129.033 196.347 129.033C196.781 129.033 197.167 128.948 197.504 128.777C197.841 128.601 198.104 128.364 198.295 128.066C198.49 127.769 198.588 127.432 198.588 127.056V124.595C198.588 124.106 198.439 123.735 198.141 123.481C197.848 123.223 197.406 123.093 196.815 123.093C196.342 123.093 195.954 123.179 195.651 123.35C195.348 123.516 195.146 123.752 195.043 124.06L195.036 124.082H193.761L193.769 124.038C193.837 123.623 194.008 123.262 194.281 122.954C194.56 122.642 194.918 122.4 195.358 122.229C195.797 122.053 196.298 121.965 196.859 121.965C197.504 121.965 198.048 122.07 198.493 122.28C198.942 122.49 199.281 122.793 199.511 123.188C199.745 123.579 199.862 124.048 199.862 124.595V130H198.588V128.835H198.471C198.305 129.114 198.102 129.351 197.863 129.546C197.628 129.741 197.362 129.89 197.064 129.993C196.767 130.09 196.439 130.139 196.083 130.139ZM202.191 130V122.104H203.466V123.276H203.583C203.734 122.861 203.991 122.539 204.352 122.31C204.713 122.08 205.16 121.965 205.692 121.965C205.814 121.965 205.934 121.973 206.051 121.987C206.173 121.997 206.266 122.007 206.33 122.017V123.254C206.198 123.23 206.068 123.213 205.941 123.203C205.819 123.188 205.688 123.181 205.546 123.181C205.141 123.181 204.782 123.262 204.469 123.423C204.157 123.584 203.91 123.809 203.729 124.097C203.554 124.385 203.466 124.722 203.466 125.107V130H202.191ZM208.051 130V122.104H209.325V123.291H209.442C209.643 122.871 209.931 122.546 210.307 122.317C210.683 122.083 211.161 121.965 211.742 121.965C212.631 121.965 213.312 122.219 213.786 122.727C214.264 123.23 214.503 123.95 214.503 124.888V130H213.229V125.195C213.229 124.482 213.078 123.955 212.775 123.613C212.477 123.267 212.013 123.093 211.383 123.093C210.963 123.093 210.6 123.184 210.292 123.364C209.984 123.545 209.745 123.801 209.574 124.133C209.408 124.465 209.325 124.863 209.325 125.327V130H208.051ZM216.84 130V122.104H218.114V130H216.84ZM217.484 120.581C217.245 120.581 217.038 120.496 216.862 120.325C216.691 120.149 216.605 119.941 216.605 119.702C216.605 119.458 216.691 119.25 216.862 119.08C217.038 118.909 217.245 118.823 217.484 118.823C217.729 118.823 217.936 118.909 218.107 119.08C218.278 119.25 218.363 119.458 218.363 119.702C218.363 119.941 218.278 120.149 218.107 120.325C217.936 120.496 217.729 120.581 217.484 120.581ZM220.517 130V122.104H221.791V123.291H221.908C222.108 122.871 222.396 122.546 222.772 122.317C223.148 122.083 223.627 121.965 224.208 121.965C225.097 121.965 225.778 122.219 226.251 122.727C226.73 123.23 226.969 123.95 226.969 124.888V130H225.695V125.195C225.695 124.482 225.543 123.955 225.241 123.613C224.943 123.267 224.479 123.093 223.849 123.093C223.429 123.093 223.065 123.184 222.758 123.364C222.45 123.545 222.211 123.801 222.04 124.133C221.874 124.465 221.791 124.863 221.791 125.327V130H220.517ZM232.528 132.783C231.894 132.783 231.339 132.693 230.866 132.512C230.392 132.336 230.014 132.085 229.73 131.758C229.452 131.436 229.279 131.06 229.21 130.63L229.225 130.623H230.543L230.551 130.63C230.619 130.928 230.824 131.172 231.166 131.362C231.508 131.558 231.962 131.655 232.528 131.655C233.236 131.655 233.788 131.494 234.184 131.172C234.584 130.854 234.784 130.405 234.784 129.824V128.228H234.667C234.501 128.516 234.293 128.762 234.044 128.967C233.795 129.172 233.515 129.329 233.202 129.436C232.89 129.539 232.553 129.59 232.191 129.59C231.513 129.59 230.924 129.429 230.426 129.106C229.933 128.779 229.552 128.33 229.284 127.759C229.015 127.188 228.881 126.533 228.881 125.796V125.781C228.881 125.044 229.015 124.39 229.284 123.818C229.557 123.242 229.943 122.791 230.441 122.463C230.939 122.131 231.532 121.965 232.221 121.965C232.592 121.965 232.934 122.024 233.246 122.141C233.559 122.258 233.834 122.424 234.074 122.639C234.318 122.854 234.521 123.11 234.682 123.408H234.77V122.104H236.044V129.89C236.044 130.476 235.9 130.986 235.612 131.421C235.329 131.855 234.923 132.19 234.396 132.424C233.869 132.664 233.246 132.783 232.528 132.783ZM232.47 128.462C232.958 128.462 233.375 128.35 233.722 128.125C234.074 127.896 234.342 127.581 234.528 127.18C234.718 126.78 234.813 126.318 234.813 125.796V125.781C234.813 125.259 234.718 124.795 234.528 124.39C234.342 123.984 234.074 123.667 233.722 123.438C233.375 123.208 232.958 123.093 232.47 123.093C231.981 123.093 231.566 123.208 231.225 123.438C230.888 123.667 230.629 123.984 230.448 124.39C230.272 124.795 230.185 125.259 230.185 125.781V125.796C230.185 126.318 230.272 126.78 230.448 127.18C230.629 127.581 230.888 127.896 231.225 128.125C231.566 128.35 231.981 128.462 232.47 128.462Z" fill="white"/>
<defs>
<filter id="filter0_d_242_16780" x="0" y="0" width="408" height="258" filterUnits="userSpaceOnUse" color-interpolation-filters="sRGB">
<feFlood flood-opacity="0" result="BackgroundImageFix"/>
<feColorMatrix in="SourceAlpha" type="matrix" values="0 0 0 0 0 0 0 0 0 0 0 0 0 0 0 0 0 0 127 0" result="hardAlpha"/>
<feOffset dy="4"/>
<feGaussianBlur stdDeviation="2"/>
<feComposite in2="hardAlpha" operator="out"/>
<feColorMatrix type="matrix" values="0 0 0 0 0.0625 0 0 0 0 0.0625 0 0 0 0 0.0625 0 0 0 0.25 0"/>
<feBlend mode="normal" in2="BackgroundImageFix" result="effect1_dropShadow_242_16780"/>
<feBlend mode="normal" in="SourceGraphic" in2="effect1_dropShadow_242_16780" result="shape"/>
</filter>
</defs>
</svg>
